<svg width="6" height="9" viewBox="0 0 6 9" fill="none" xmlns="http://www.w3.org/2000/svg">
<path d="M2.9819 8.1094C2.5236 8.1094 2.11079 8.0182 1.74369 7.8359C1.37649 7.6536 1.08219 7.4036 0.860794 7.0859C0.639494 6.7682 0.518389 6.4062 0.497589 6H1.43509C1.47149 6.362 1.63559 6.6615 1.92719 6.8984C2.22149 7.1328 2.5731 7.25 2.9819 7.25C3.3101 7.25 3.6017 7.1732 3.8569 7.0195C4.1147 6.8659 4.31659 6.6549 4.46239 6.3867C4.61079 6.1159 4.68509 5.8099 4.68509 5.4688C4.68509 5.1198 4.60819 4.80859 4.45459 4.53516C4.30349 4.25911 4.09519 4.04167 3.82959 3.88281C3.56399 3.72396 3.2606 3.64323 2.9194 3.64062C2.6746 3.63802 2.42329 3.67578 2.16549 3.75391C1.90769 3.82943 1.69549 3.92708 1.52879 4.04688L0.622589 3.9375L1.1069 0H5.26319V0.85938H1.9194L1.63819 3.21875H1.68509C1.84909 3.08854 2.05489 2.98047 2.30219 2.89453C2.54959 2.80859 2.80749 2.76563 3.07569 2.76563C3.56529 2.76563 4.00149 2.88281 4.38429 3.11719C4.76969 3.34896 5.07179 3.66667 5.29049 4.07031C5.51189 4.47396 5.62259 4.9349 5.62259 5.4531C5.62259 5.9635 5.50799 6.4193 5.27879 6.8203C5.05219 7.2188 4.73969 7.5339 4.34129 7.7656C3.94289 7.9948 3.4897 8.1094 2.9819 8.1094Z" fill="white"/>
</svg>
