<svg width="47" height="30" viewBox="0 0 47 30" fill="none" xmlns="http://www.w3.org/2000/svg">
<path d="M37.8586 7.7194C36.7082 8.036 26.1856 16.3697 25.492 18.4145C25.3391 19.1207 25.5074 25.9697 25.6603 26.9967C26.3539 27.154 31.3594 27.0171 32.2779 27.1738L32.1678 29.291C31.2681 29.2197 24.9076 29.2365 21.2785 29.2365C19.4339 29.2365 13.5051 29.4447 11.6842 29.3906L12.0284 27.3755C13.0277 27.2999 17.1621 27.5635 18.0683 26.577C18.519 26.0864 18.3774 19.5775 18.2244 18.477C17.8416 17.2999 8.62008 5.4997 6.21073 3.5663H0V0.599854H20.9458V0.804523C20.9642 0.804523 20.9991 0.807874 21.0169 0.811554L20.9458 1.3129V3.5662H14.6296C17.4447 7.7704 21.481 12.8462 23.2025 15.2853L31.639 7.4772H26.6243L25.9179 4.5139H44.2871L44.1515 4.7252C44.1657 4.7252 44.1963 4.7285 44.2163 4.7285L42.904 6.6722C42.8923 6.6722 42.8724 6.6756 42.8622 6.6788L42.3327 7.4772H38.9444C38.5058 7.5759 38.1197 7.664 37.8586 7.7194ZM43.8524 26.2979L42.2306 26.2162L40.4211 25.9906L40.4365 29.1584L41.8635 29.284L43.4015 29.4001L43.8524 26.2979ZM47 11.1556C46.4529 11.1359 41.4769 10.6549 40.8302 10.5241L40.9067 23.9067L43.7228 24.139L47 11.1556Z" fill="#C9CCCE"/>
</svg>
